<?xml version="1.0" standalone="no"?>
<!DOCTYPE svg PUBLIC "-//W3C//DTD SVG 20010904//EN"
 "http://www.w3.org/TR/2001/REC-SVG-20010904/DTD/svg10.dtd">
<svg version="1.0" xmlns="http://www.w3.org/2000/svg"
 width="1300.000000pt" height="1300.000000pt" viewBox="0 0 1300.000000 1300.000000"
 preserveAspectRatio="xMidYMid meet">
<metadata>
Created by potrace 1.11, written by Peter Selinger 2001-2013
</metadata>
<g transform="translate(0.000000,1300.000000) scale(0.100000,-0.100000)"
fill="#000000" stroke="none">
<path d="M5959 11938 c-587 -1156 -569 -1125 -670 -1148 -40 -9 -64 -9 -94 -1
-22 6 -281 150 -575 320 -294 170 -536 309 -537 307 -2 -1 146 -769 328 -1707
229 -1179 329 -1717 326 -1746 -7 -67 -48 -127 -109 -157 -100 -50 -186 -28
-279 72 -120 128 -321 344 -808 867 -282 303 -516 551 -520 553 -5 2 -75 -154
-156 -345 -227 -534 -212 -505 -290 -545 -56 -29 -113 -26 -325 21 -409 89
-1554 331 -1556 328 -1 -1 40 -130 91 -287 544 -1666 517 -1582 513 -1642 -6
-79 -40 -126 -126 -171 -37 -19 -200 -97 -362 -172 -162 -75 -298 -140 -302
-143 -3 -4 655 -542 1464 -1197 809 -654 1499 -1214 1535 -1244 80 -65 108
-119 101 -195 -3 -32 -75 -244 -193 -569 -104 -284 -186 -519 -184 -521 2 -2
384 63 849 145 1682 297 1928 339 1977 339 80 0 141 -27 204 -89 69 -69 89
-123 89 -235 0 -69 -12 -323 -35 -716 -3 -52 -12 -228 -20 -390 -8 -162 -17
-335 -20 -385 -3 -49 -14 -263 -25 -475 -11 -212 -22 -425 -25 -475 -2 -49 -7
-145 -11 -212 l-7 -123 292 0 291 0 0 38 c0 20 -5 114 -10 207 -5 94 -12 217
-15 275 -3 58 -7 146 -10 195 -3 50 -7 135 -10 190 -8 156 -14 272 -20 375 -3
52 -12 226 -20 385 -16 324 -19 387 -40 765 -26 459 -22 485 74 580 63 62 127
90 206 90 28 0 307 -45 620 -100 314 -56 635 -112 715 -126 80 -14 447 -78
815 -143 369 -65 672 -117 674 -115 2 2 -80 237 -184 521 -134 370 -189 534
-192 573 -6 82 22 128 132 218 50 40 167 135 260 210 94 76 409 331 700 567
292 236 861 697 1265 1025 404 327 737 599 740 604 3 5 -151 82 -341 171 -191
89 -360 172 -377 183 -42 30 -72 97 -71 158 0 36 78 288 303 979 167 512 303
931 302 932 -1 1 -393 -81 -871 -183 -479 -102 -893 -186 -920 -186 -55 -1
-115 24 -152 64 -26 28 -35 48 -228 501 -81 191 -151 347 -156 345 -4 -2 -317
-335 -694 -740 -518 -556 -697 -742 -729 -758 -58 -28 -120 -26 -184 6 -61 30
-102 90 -109 157 -3 29 97 564 326 1746 182 938 330 1706 328 1707 -1 1 -243
-137 -537 -307 -294 -170 -553 -314 -575 -320 -65 -18 -138 4 -188 54 -40 42
-54 68 -779 1497 -272 537 -331 650 -339 650 -3 0 -246 -473 -540 -1052z"/>
</g>
</svg>
